<svg width="24" height="24" viewBox="0 0 24 24" fill="none" xmlns="http://www.w3.org/2000/svg">
    <path
        d="M22.2753 9.2675C22.2753 10.3814 21.8328 11.4497 21.0451 12.2373C20.2575 13.025 19.1892 13.4675 18.0753 13.4675C17.052 13.4738 16.063 13.0996 15.3003 12.4175C14.8261 13.3054 14.1131 14.0431 13.2418 14.5474C12.3706 15.0516 11.3758 15.3022 10.3696 15.271C9.36348 15.2398 8.38609 14.928 7.54776 14.3708C6.70943 13.8136 6.04355 13.0331 5.62527 12.1175C5.21273 12.4202 4.71183 12.5784 4.20025 12.5675C3.84568 12.5675 3.49459 12.4977 3.16701 12.362C2.83943 12.2263 2.5418 12.0274 2.29108 11.7767C2.04036 11.526 1.84147 11.2283 1.70578 10.9007C1.5701 10.5732 1.50027 10.2221 1.50027 9.8675C1.49265 9.33647 1.64628 8.81562 1.94087 8.37373C2.23546 7.93184 2.65714 7.5897 3.15026 7.3925C3.02263 6.98026 2.9718 6.5481 3.00027 6.1175C3.00689 5.1709 3.30224 4.24886 3.84688 3.47461C4.39153 2.70036 5.15952 2.11078 6.0482 1.78466C6.93687 1.45854 7.9039 1.41141 8.82007 1.64958C9.73625 1.88775 10.5579 2.39987 11.1753 3.1175C12.0471 2.48363 13.0974 2.1423 14.1753 2.1425C15.1191 2.14197 16.0408 2.42869 16.8178 2.96456C17.5948 3.50042 18.1904 4.26005 18.5253 5.1425C19.5531 5.23631 20.5083 5.71199 21.2026 6.47564C21.8968 7.2393 22.2796 8.23545 22.2753 9.2675Z"
        stroke="black" stroke-width="2" stroke-linecap="round" stroke-linejoin="round" />
    <path
        d="M18.0753 13.4675C18.0753 13.4675 14.4003 14.1425 14.4003 22.4675H10.5753C10.5753 22.4675 10.8003 16.6925 7.05029 13.9175"
        stroke="black" stroke-width="2" stroke-linecap="round" stroke-linejoin="round" />
</svg>