<svg width="24" height="24" viewBox="0 0 24 24" fill="none" xmlns="http://www.w3.org/2000/svg">
    <path
        d="M8.38481 19C8.82243 20.5856 10.2752 21.75 12 21.75H16C18.0711 21.75 19.75 20.0711 19.75 18V10C19.75 8.27523 18.5856 6.82243 17 6.38481V14C17 16.7614 14.7614 19 12 19H8.38481Z"
        fill="black" />
    <path
        d="M8 2.25C5.92893 2.25 4.25 3.92893 4.25 6V14C4.25 16.0711 5.92893 17.75 8 17.75H12C14.0711 17.75 15.75 16.0711 15.75 14V6C15.75 3.92893 14.0711 2.25 12 2.25H8Z"
        fill="black" />
</svg>