<svg width="25" height="25" viewBox="0 0 25 25" fill="none" xmlns="http://www.w3.org/2000/svg">
<path d="M1.75 23.85H23.725" stroke="black" stroke-width="2" stroke-linecap="round" stroke-linejoin="round"/>
<path d="M3.0249 21.15C3.42839 18.8515 4.62496 16.7673 6.40639 15.2599C8.18783 13.7526 10.4414 12.9175 12.7749 12.9C15.1037 12.9054 17.3548 13.7379 19.1269 15.2489C20.8989 16.76 22.0766 18.8513 22.4499 21.15" fill="#DDDDDD"/>
<path d="M3.0249 21.15C3.42839 18.8515 4.62496 16.7673 6.40639 15.2599C8.18783 13.7526 10.4414 12.9175 12.7749 12.9C15.1037 12.9054 17.3548 13.7379 19.1269 15.2489C20.8989 16.76 22.0766 18.8513 22.4499 21.15" stroke="black" stroke-width="2" stroke-linecap="round" stroke-linejoin="round"/>
<path d="M12.7747 12.825C13.8517 12.825 14.7247 11.9519 14.7247 10.875C14.7247 9.79804 13.8517 8.92499 12.7747 8.92499C11.6978 8.92499 10.8247 9.79804 10.8247 10.875C10.8247 11.9519 11.6978 12.825 12.7747 12.825Z" stroke="black" stroke-width="2" stroke-linecap="round" stroke-linejoin="round"/>
</svg>
