<svg width="26" height="18" viewBox="0 0 26 18" fill="none" xmlns="http://www.w3.org/2000/svg">
<path d="M0.804199 17H24.362" stroke="black" stroke-width="1.60804" stroke-linecap="round" stroke-linejoin="round"/>
<path d="M2.1709 14.1055C2.60345 11.6415 3.8862 9.40717 5.79595 7.79123C7.7057 6.17529 10.1216 5.28004 12.6232 5.26129C15.1197 5.26712 17.533 6.15956 19.4326 7.77942C21.3323 9.39929 22.5948 11.6413 22.995 14.1055" fill="#DDDDDD"/>
<path d="M2.1709 14.1055C2.60345 11.6415 3.8862 9.40717 5.79595 7.79123C7.7057 6.17529 10.1216 5.28004 12.6232 5.26129C15.1197 5.26712 17.533 6.15956 19.4326 7.77942C21.3323 9.39929 22.5948 11.6413 22.995 14.1055" stroke="black" stroke-width="1.60804" stroke-linecap="round" stroke-linejoin="round"/>
<path d="M12.6232 5.18092C13.7777 5.18092 14.7136 4.24498 14.7136 3.09046C14.7136 1.93593 13.7777 1 12.6232 1C11.4686 1 10.5327 1.93593 10.5327 3.09046C10.5327 4.24498 11.4686 5.18092 12.6232 5.18092Z" stroke="black" stroke-width="1.60804" stroke-linecap="round" stroke-linejoin="round"/>
</svg>
