<svg width="24" height="24" viewBox="0 0 24 24" fill="none" xmlns="http://www.w3.org/2000/svg">
    <path d="M22.65 3H1.5V21.255H22.65V3Z" stroke="black" stroke-width="1.5" stroke-linecap="round"
        stroke-linejoin="round" />
    <path
        d="M6.3 18.45C7.70832 18.45 8.84999 17.3083 8.84999 15.9C8.84999 14.4917 7.70832 13.35 6.3 13.35C4.89167 13.35 3.75 14.4917 3.75 15.9C3.75 17.3083 4.89167 18.45 6.3 18.45Z"
        stroke="black" stroke-width="1.5" stroke-linecap="round" stroke-linejoin="round" />
    <path
        d="M13.8752 18.45C15.2835 18.45 16.4252 17.3083 16.4252 15.9C16.4252 14.4917 15.2835 13.35 13.8752 13.35C12.4669 13.35 11.3252 14.4917 11.3252 15.9C11.3252 17.3083 12.4669 18.45 13.8752 18.45Z"
        stroke="black" stroke-width="1.5" stroke-linecap="round" stroke-linejoin="round" />
    <path d="M18.75 14.4H20.175" stroke="black" stroke-width="1.5" stroke-linecap="round"
        stroke-linejoin="round" />
    <path d="M18.75 17.4H20.175" stroke="black" stroke-width="1.5" stroke-linecap="round"
        stroke-linejoin="round" />
    <path
        d="M6.3 10.95C7.70832 10.95 8.84999 9.80833 8.84999 8.4C8.84999 6.99168 7.70832 5.85001 6.3 5.85001C4.89167 5.85001 3.75 6.99168 3.75 8.4C3.75 9.80833 4.89167 10.95 6.3 10.95Z"
        stroke="black" stroke-width="1.5" stroke-linecap="round" stroke-linejoin="round" />
    <path
        d="M13.8752 10.95C15.2835 10.95 16.4252 9.80833 16.4252 8.4C16.4252 6.99168 15.2835 5.85001 13.8752 5.85001C12.4669 5.85001 11.3252 6.99168 11.3252 8.4C11.3252 9.80833 12.4669 10.95 13.8752 10.95Z"
        stroke="black" stroke-width="1.5" stroke-linecap="round" stroke-linejoin="round" />
    <path d="M18.75 6.89999H20.175" stroke="black" stroke-width="1.5" stroke-linecap="round"
        stroke-linejoin="round" />
    <path d="M18.75 9.89999H20.175" stroke="black" stroke-width="1.5" stroke-linecap="round"
        stroke-linejoin="round" />
</svg>