<svg width="37" height="37" viewBox="0 0 37 37" fill="none" xmlns="http://www.w3.org/2000/svg">
<ellipse cx="18.4783" cy="18.4916" rx="15.6989" ry="15.1043" fill="#B14B25"/>
<path d="M26.8838 2.04041C26.9744 2.08772 27.0657 2.13365 27.1571 2.17951C27.9496 2.58145 28.7109 3.0512 29.4157 3.59304C29.4874 3.64819 29.5597 3.70263 29.6321 3.75697C30.1162 4.12231 30.5737 4.51564 31.018 4.92815C31.1513 5.0504 31.288 5.16779 31.427 5.28337C31.4847 5.34156 31.4847 5.34156 31.4847 5.42841C31.5223 5.44411 31.5223 5.44411 31.5607 5.46013C31.6775 5.52604 31.7444 5.60106 31.8321 5.70255C31.9676 5.8572 32.1045 6.00969 32.2451 6.1597C32.4824 6.41348 32.7046 6.67376 32.9178 6.94836C32.9612 7.00208 33.0047 7.05573 33.0483 7.10935C35.3165 9.92918 36.7037 13.5815 36.9131 17.1972C36.9155 17.2364 36.9179 17.2756 36.9203 17.316C36.9367 17.5948 36.9484 17.8735 36.9565 18.1526C36.9575 18.1855 36.9586 18.2184 36.9596 18.2522C37.0749 22.59 35.4848 26.8823 32.3098 30.7465C32.28 30.7799 32.28 30.7799 32.2496 30.8141C31.9718 31.125 31.6811 31.4228 31.387 31.7182C31.3547 31.7507 31.3223 31.7832 31.289 31.8168C31.0862 32.019 30.8773 32.2108 30.6596 32.3967C30.6361 32.417 30.6127 32.4373 30.5886 32.4581C29.5651 33.3424 28.4556 34.0881 27.2723 34.7418C27.236 34.7619 27.1998 34.7821 27.1624 34.8029C24.6278 36.2026 21.6918 36.9089 18.804 36.9566C18.7702 36.9575 18.7365 36.9584 18.7018 36.9593C14.7679 37.0626 10.6492 35.758 7.52916 33.3521C7.49165 33.3235 7.45414 33.2948 7.4155 33.2653C6.71725 32.7301 6.057 32.1721 5.43677 31.5479C5.34927 31.4599 5.26132 31.3725 5.17331 31.285C4.86192 30.9739 4.57067 30.6591 4.29926 30.3122C4.25218 30.255 4.20493 30.1979 4.15744 30.141C3.40803 29.2347 2.77749 28.2639 2.21901 27.2296C2.17548 27.1497 2.13063 27.0705 2.08565 26.9914C1.01554 25.0753 0.424081 22.8626 0.160098 20.6958C0.156555 20.6667 0.153011 20.6377 0.14936 20.6078C0.0634463 19.8909 0.0342691 19.1804 0.0352447 18.4593C0.0352853 18.4201 0.0353273 18.381 0.0353692 18.3407C0.0447609 14.1528 1.53171 10.0005 4.934 5.97112C4.99522 5.90488 5.05596 5.83823 5.11657 5.77142C5.46303 5.38979 5.81783 5.02502 6.21005 4.69015C6.25277 4.65275 6.29548 4.61536 6.33949 4.57683C7.36804 3.67883 8.48414 2.90899 9.68423 2.25822C9.72244 2.2371 9.76065 2.21599 9.80001 2.19423C12.0189 0.970232 14.5078 0.304763 17.0234 0.0868619C17.0706 0.0827053 17.1178 0.0785488 17.1665 0.0742663C20.4861 -0.192225 23.9347 0.488516 26.8838 2.04041ZM10.4605 3.0848C10.4069 3.11244 10.3531 3.13991 10.2993 3.16721C8.72934 3.96442 7.3368 5.08557 6.09182 6.32073C6.03007 6.38195 5.96816 6.44301 5.90624 6.50405C5.64102 6.76894 5.40093 7.04593 5.1678 7.33921C5.12068 7.39639 5.07342 7.45346 5.02598 7.51037C4.47996 8.1708 3.99448 8.85835 3.56099 9.59743C3.52951 9.65039 3.52951 9.65039 3.4974 9.70442C2.35464 11.63 1.64256 13.7043 1.29192 15.9107C1.28535 15.9518 1.27878 15.993 1.27201 16.0354C1.15189 16.8417 1.11122 17.6476 1.11278 18.462C1.11281 18.509 1.11283 18.5559 1.11285 18.6043C1.11482 19.4623 1.16798 20.3018 1.30278 21.1491C1.3074 21.1782 1.31203 21.2074 1.3168 21.2374C1.57296 22.8276 2.03386 24.3877 2.73588 25.8392C2.75053 25.8696 2.76518 25.9 2.78028 25.9313C2.86457 26.105 2.95119 26.2774 3.03965 26.4491C3.08378 26.535 3.12713 26.6213 3.17049 26.7076C3.55147 27.4562 4.01461 28.1628 4.51639 28.8357C4.55048 28.8817 4.58458 28.9277 4.6197 28.9751C5.32052 29.9098 6.14004 30.8199 7.03517 31.5716C7.07906 31.61 7.12287 31.6484 7.16664 31.687C8.83063 33.144 10.8236 34.2896 12.9296 34.9704C13.0287 35.0026 13.1275 35.0358 13.2263 35.0692C14.9155 35.6315 16.699 35.8803 18.4755 35.8818C18.5301 35.8818 18.5301 35.8818 18.5858 35.8819C20.3853 35.8804 22.1231 35.5715 23.8415 35.0458C23.8964 35.0295 23.9512 35.0132 24.0078 34.9964C25.7447 34.4531 27.372 33.5529 28.8356 32.4836C28.8626 32.4639 28.8895 32.4442 28.9173 32.4239C29.8614 31.7283 30.7686 30.902 31.5281 30.0082C31.5668 29.9641 31.6054 29.9201 31.6442 29.8761C32.3354 29.0865 32.953 28.2219 33.4824 27.3157C33.498 27.289 33.5137 27.2623 33.5299 27.2348C34.8351 24.9953 35.6034 22.512 35.8274 19.9331C35.8323 19.8815 35.8372 19.83 35.8422 19.7769C35.9239 18.7481 35.8873 17.7015 35.784 16.6761C35.7798 16.6341 35.7756 16.5921 35.7713 16.5489C35.6108 15.015 35.2095 13.5092 34.6549 12.0728C34.6413 12.0374 34.6277 12.0021 34.6137 11.9656C34.4486 11.5407 34.2589 11.1313 34.0487 10.7269C34.0034 10.6396 33.9589 10.5519 33.9144 10.4641C33.2005 9.0703 32.2616 7.81194 31.1983 6.66691C31.1343 6.59774 31.0707 6.52823 31.0072 6.45862C30.9751 6.42348 30.9751 6.42348 30.9424 6.38764C30.9216 6.36488 30.9008 6.34212 30.8794 6.31867C30.6887 6.10641 30.6887 6.10641 30.4859 5.90611C30.4572 5.90611 30.4286 5.90611 30.399 5.90611C30.399 5.87745 30.399 5.84879 30.399 5.81926C30.3422 5.75833 30.3422 5.75833 30.2633 5.6944C30.2314 5.66736 30.1995 5.64033 30.1666 5.61247C30.1287 5.58039 30.0907 5.54831 30.0516 5.51527C30.0069 5.47615 29.9622 5.43696 29.9176 5.39771C29.5424 5.06906 29.1522 4.7661 28.7488 4.47301C28.7191 4.45128 28.6893 4.42956 28.6587 4.40717C28.1968 4.07077 27.7221 3.76247 27.2288 3.47419C27.1977 3.45595 27.1665 3.43771 27.1344 3.41893C25.5567 2.50277 23.8428 1.86041 22.061 1.47653C22.0032 1.46387 22.0032 1.46387 21.9443 1.45096C20.8318 1.21063 19.6908 1.11936 18.5542 1.12097C18.517 1.12101 18.4798 1.12105 18.4414 1.1211C15.6499 1.12767 12.9413 1.80563 10.4605 3.0848Z" fill="#B14B25"/>
<path d="M28.9659 17.0235C29.2494 17.2582 29.3699 17.5304 29.4168 17.8887C29.4336 18.177 29.3886 18.3566 29.2178 18.5896C29.0539 18.766 28.8962 18.869 28.6677 18.9438C28.6188 18.96 28.5699 18.9762 28.5196 18.9929C28.468 19.0094 28.4165 19.0259 28.3634 19.0429C28.3103 19.0602 28.2573 19.0775 28.2027 19.0954C27.8887 19.1969 27.5747 19.2901 27.2546 19.3705C27.0629 19.4215 26.8748 19.4815 26.686 19.5423C26.3893 19.6377 26.0925 19.722 25.7908 19.8C25.5922 19.853 25.397 19.9164 25.2013 19.9793C24.0601 20.3427 24.0601 20.3427 23.6054 20.1856C23.4941 20.1069 23.4941 20.1069 23.3937 19.9874C23.2918 19.8823 23.2918 19.8823 23.1948 19.8852C22.9414 19.9179 22.7075 19.9798 22.4654 20.0607C22.43 20.0722 22.3946 20.0837 22.3581 20.0956C22.2895 20.1179 22.2212 20.1408 22.153 20.1644C22.061 20.1937 22.061 20.1937 21.9132 20.2197C21.7786 20.2924 21.7743 20.3197 21.7302 20.4611C21.7111 20.5382 21.693 20.6156 21.6756 20.6931C21.3953 21.791 20.8312 22.7445 20.0637 23.5715C20.0027 23.639 19.9442 23.7087 19.8878 23.78C19.2209 24.604 18.0923 25.1836 17.1103 25.5353C17.0827 25.5452 17.0551 25.5551 17.0267 25.5653C16.5705 25.7259 16.1127 25.8195 15.6337 25.8827C15.5903 25.8885 15.5469 25.8942 15.5021 25.9002C14.1657 26.0403 12.7992 25.8391 11.595 25.2313C11.5651 25.2166 11.5352 25.202 11.5044 25.1869C9.80316 24.3495 8.47101 22.8722 7.84997 21.0739C7.45757 19.9072 7.45757 19.9072 7.64636 19.4802C7.71047 19.3871 7.77709 19.3147 7.86027 19.2383C7.88395 19.2159 7.90763 19.1934 7.93203 19.1703C8.83128 18.4167 10.26 18.2833 11.3779 18.1526C11.4116 18.1486 11.4454 18.1445 11.4801 18.1403C11.6833 18.116 11.8866 18.095 12.0903 18.0763C12.1665 18.0692 12.2426 18.0617 12.3187 18.0537C13.8804 17.8934 15.4955 17.9198 17.0586 18.0539C17.191 18.0653 17.3235 18.0752 17.4562 18.0848C18.042 18.1295 18.6175 18.2183 19.1948 18.3264C19.2374 18.3341 19.2801 18.3419 19.324 18.3499C20.1485 18.5029 21.2416 18.7269 21.757 19.4555C22.0342 19.3884 22.306 19.3096 22.5781 19.2244C22.7434 19.1743 22.8849 19.1384 23.0598 19.1515C23.0558 19.0856 23.0558 19.0856 23.0517 19.0185C23.0649 18.7397 23.1431 18.5747 23.3394 18.3833C23.5589 18.206 23.7891 18.1386 24.0586 18.0658C24.1345 18.045 24.2104 18.0243 24.2863 18.0035C24.4119 17.9693 24.5376 17.9352 24.6633 17.9014C24.9172 17.833 25.1667 17.7579 25.4152 17.6717C25.6016 17.6092 25.7908 17.5572 25.9799 17.5039C26.155 17.4544 26.3296 17.4034 26.5041 17.352C26.535 17.3429 26.5658 17.3338 26.5976 17.3244C26.6922 17.2965 26.7868 17.2686 26.8814 17.2407C27.0682 17.1855 27.2551 17.1304 27.4421 17.0758C27.5585 17.0417 27.6745 17.0069 27.7905 16.9713C27.8434 16.9554 27.8963 16.9395 27.9508 16.9231C28.0202 16.9019 28.0202 16.9019 28.0909 16.8802C28.4175 16.8077 28.6791 16.8601 28.9659 17.0235Z" fill="#FEFEFD"/>
<path d="M18.6737 18.9777C18.7178 18.9847 18.762 18.9918 18.8076 18.9991C20.7061 19.3041 20.7061 19.3041 21.149 19.8028C21.0666 20.0257 20.8955 20.0752 20.691 20.1714C20.1972 20.3876 19.714 20.5096 19.1857 20.6048C19.1001 20.6211 19.0147 20.639 18.9296 20.6579C18.4064 20.7718 17.879 20.8253 17.3464 20.8749C17.2955 20.8797 17.2445 20.8845 17.192 20.8894C16.3261 20.9685 15.4658 20.9957 14.5969 20.9943C14.5413 20.9943 14.4858 20.9943 14.4285 20.9943C13.3945 20.9924 12.3738 20.914 11.348 20.7881C11.2908 20.7811 11.2908 20.7811 11.2324 20.7739C10.6495 20.702 10.0759 20.6176 9.51052 20.4542C9.45714 20.439 9.45714 20.439 9.40267 20.4235C9.01464 20.3105 8.65484 20.1943 8.33799 19.9331C8.35203 19.8106 8.36117 19.7368 8.44859 19.6469C8.80854 19.4267 9.20752 19.3305 9.61241 19.2254C9.6881 19.2053 9.76354 19.1843 9.83866 19.1622C10.184 19.0615 10.5341 19.0054 10.8893 18.9533C10.9209 18.9486 10.9524 18.9439 10.9848 18.939C11.5343 18.8576 12.0825 18.7927 12.6373 18.7605C12.6789 18.7581 12.7204 18.7556 12.7633 18.7531C14.7241 18.6452 16.7334 18.6545 18.6737 18.9777Z" fill="#B14B25"/>
<path d="M15.2429 12.203C15.2716 12.2173 15.3002 12.2317 15.3298 12.2464C15.3029 12.2769 15.276 12.3073 15.2483 12.3387C15.0359 12.6261 15.0294 12.9443 15.0692 13.2887C15.1365 13.5427 15.2313 13.7836 15.3298 14.0269C15.3474 14.0708 15.3651 14.1146 15.3833 14.1597C15.4023 14.2066 15.4212 14.2535 15.4407 14.3018C15.46 14.3496 15.4793 14.3975 15.4992 14.4468C15.5374 14.5413 15.5761 14.6356 15.6152 14.7297C15.8599 15.3273 15.972 15.9445 15.7221 16.5625C15.5664 16.9048 15.3497 17.2169 15.0122 17.398C14.8521 17.4577 14.8521 17.4577 14.7218 17.4143C14.7422 17.3932 14.7627 17.3722 14.7837 17.3505C15.0933 17.0172 15.1798 16.7539 15.1773 16.2996C15.1588 15.8191 14.9478 15.3907 14.7625 14.9552C14.563 14.4849 14.4043 14.0714 14.3988 13.5547C14.3984 13.5201 14.3979 13.4854 14.3974 13.4498C14.4031 13.0745 14.551 12.779 14.8086 12.507C14.9481 12.3969 15.0928 12.298 15.2429 12.203Z" fill="#FEFCFA"/>
<path d="M9.85793 12.1597C9.85793 12.3153 9.82559 12.3454 9.73036 12.4637C9.55003 12.6888 9.52651 12.8766 9.55394 13.1585C9.59317 13.3195 9.64831 13.4728 9.70594 13.6281C9.72142 13.6712 9.73691 13.7144 9.75286 13.7589C9.87179 14.0871 9.99936 14.4119 10.1352 14.7334C10.3693 15.297 10.4535 15.9614 10.2515 16.5485C10.0904 16.9072 9.81855 17.2306 9.46709 17.4144C9.34223 17.4469 9.34223 17.4469 9.24995 17.4578C9.30046 17.3384 9.35654 17.2613 9.44266 17.1619C9.666 16.895 9.71147 16.6591 9.7017 16.3153C9.64878 15.8298 9.45665 15.3827 9.26895 14.9363C8.74345 13.6859 8.74345 13.6859 8.97853 13.0581C9.16502 12.6475 9.43888 12.3378 9.85793 12.1597Z" fill="#FEFCFA"/>
<path d="M12.507 11.1173C12.5357 11.1316 12.5643 11.146 12.5939 11.1607C12.5656 11.1964 12.5656 11.1964 12.5369 11.2328C12.3095 11.5566 12.281 11.8586 12.3333 12.2464C12.3911 12.4692 12.4726 12.6775 12.5613 12.8897C12.5829 12.9437 12.6045 12.9977 12.6259 13.0518C12.6866 13.2035 12.7486 13.3547 12.811 13.5058C12.8442 13.5873 12.8772 13.6689 12.9101 13.7506C12.9233 13.7833 12.9365 13.8161 12.9502 13.8498C13.1461 14.3622 13.155 15.0106 12.9521 15.5204C12.7504 15.9415 12.4866 16.2161 12.0456 16.391C12.0116 16.3991 11.9775 16.4071 11.9424 16.4154C11.9859 16.2852 11.9859 16.2852 12.0836 16.1956C12.3153 15.9679 12.4331 15.6939 12.4473 15.3705C12.4135 14.6263 12.0444 13.8957 11.765 13.2176C11.6177 12.8365 11.615 12.2841 11.7182 11.891C11.8626 11.5803 12.1027 11.3355 12.393 11.158C12.4306 11.1446 12.4682 11.1312 12.507 11.1173Z" fill="#FEFCFA"/>
</svg>
