<svg width="24" height="30" viewBox="0 0 24 30" fill="none" xmlns="http://www.w3.org/2000/svg">
<g filter="url(#filter0_d_43_442)">
<path fill-rule="evenodd" clip-rule="evenodd" d="M4.25 7C4.25 4.37665 6.37665 2.25 9 2.25H15C17.6234 2.25 19.75 4.37665 19.75 7V20.1683C19.75 21.5529 18.2183 22.3891 17.0537 21.6404L12.6759 18.8261C12.2642 18.5614 11.7358 18.5614 11.3241 18.8261L6.94633 21.6404C5.78168 22.3891 4.25 21.5529 4.25 20.1683V7ZM9 7.75C8.58579 7.75 8.25 8.08579 8.25 8.5C8.25 8.91421 8.58579 9.25 9 9.25H15C15.4142 9.25 15.75 8.91421 15.75 8.5C15.75 8.08579 15.4142 7.75 15 7.75H9Z" fill="#2B3F6C"/>
</g>
<defs>
<filter id="filter0_d_43_442" x="-4" y="0" width="32" height="32" filterUnits="userSpaceOnUse" color-interpolation-filters="sRGB">
<feFlood flood-opacity="0" result="BackgroundImageFix"/>
<feColorMatrix in="SourceAlpha" type="matrix" values="0 0 0 0 0 0 0 0 0 0 0 0 0 0 0 0 0 0 127 0" result="hardAlpha"/>
<feOffset dy="4"/>
<feGaussianBlur stdDeviation="2"/>
<feComposite in2="hardAlpha" operator="out"/>
<feColorMatrix type="matrix" values="0 0 0 0 0 0 0 0 0 0 0 0 0 0 0 0 0 0 0.25 0"/>
<feBlend mode="normal" in2="BackgroundImageFix" result="effect1_dropShadow_43_442"/>
<feBlend mode="normal" in="SourceGraphic" in2="effect1_dropShadow_43_442" result="shape"/>
</filter>
</defs>
</svg>
