<svg width="48" height="48" viewBox="0 0 48 48" fill="none" xmlns="http://www.w3.org/2000/svg">
<path fill-rule="evenodd" clip-rule="evenodd" d="M8.5 14C8.5 8.75329 12.7533 4.5 18 4.5H30C35.2467 4.5 39.5 8.75329 39.5 14V40.3367C39.5 43.1058 36.4366 44.7782 34.1073 43.2808L25.3519 37.6523C24.5284 37.1229 23.4716 37.1229 22.6481 37.6523L13.8927 43.2808C11.5634 44.7782 8.5 43.1058 8.5 40.3367V14ZM18 15.5C17.1716 15.5 16.5 16.1716 16.5 17C16.5 17.8284 17.1716 18.5 18 18.5H30C30.8284 18.5 31.5 17.8284 31.5 17C31.5 16.1716 30.8284 15.5 30 15.5H18Z" fill="#2B3F6C"/>
</svg>
