<svg width="223" height="214" viewBox="0 0 223 214" fill="none" xmlns="http://www.w3.org/2000/svg">
<path d="M150.232 84.3118C134.406 84.3118 118.295 83.6689 103.225 79.4711C88.4384 75.3679 74.8619 67.4074 62.7603 58.1988C54.8376 52.2048 47.6334 47.4398 37.347 48.1583C27.2819 48.6936 17.6559 52.4525 9.89155 58.8795C-3.19329 70.3382 -1.22678 91.5538 4.01093 106.435C11.877 128.88 35.8154 144.498 56.1612 154.633C79.6647 166.376 105.494 173.183 131.38 177.116C154.071 180.557 183.228 183.072 202.893 168.248C220.951 154.633 225.905 123.547 221.48 102.559C220.408 96.3526 217.106 90.7516 212.196 86.8077C199.508 77.5424 180.581 83.7256 166.323 84.047C161.029 84.1605 155.64 84.2739 150.232 84.3118Z" fill="#CCC5B8"/>
<path d="M198.128 25.3356C199.151 25.3356 199.981 24.506 199.981 23.4826C199.981 22.4592 199.151 21.6295 198.128 21.6295C197.105 21.6295 196.275 22.4592 196.275 23.4826C196.275 24.506 197.105 25.3356 198.128 25.3356Z" fill="#CFCFCF"/>
<path d="M74.8622 9.81158C75.8856 9.81158 76.7153 8.98194 76.7153 7.95853C76.7153 6.93511 75.8856 6.10547 74.8622 6.10547C73.8388 6.10547 73.0092 6.93511 73.0092 7.95853C73.0092 8.98194 73.8388 9.81158 74.8622 9.81158Z" fill="#CFCFCF"/>
<path d="M97.2687 186.249C98.2921 186.249 99.1218 185.419 99.1218 184.396C99.1218 183.372 98.2921 182.543 97.2687 182.543C96.2453 182.543 95.4156 183.372 95.4156 184.396C95.4156 185.419 96.2453 186.249 97.2687 186.249Z" fill="#CFCFCF"/>
<path d="M146.734 1V9.13075" stroke="#625955" stroke-width="1.89087" stroke-linecap="round" stroke-linejoin="round"/>
<path d="M142.669 5.06543H150.799" stroke="#625955" stroke-width="1.89087" stroke-linecap="round" stroke-linejoin="round"/>
<path d="M14.2595 35.2247V43.3555" stroke="#625955" stroke-width="1.89087" stroke-linecap="round" stroke-linejoin="round"/>
<path d="M10.1754 39.2902H18.3251" stroke="#625955" stroke-width="1.89087" stroke-linecap="round" stroke-linejoin="round"/>
<path d="M20.386 148.507V156.657" stroke="#625955" stroke-width="1.89087" stroke-linecap="round" stroke-linejoin="round"/>
<path d="M16.3019 152.572H24.4515" stroke="#625955" stroke-width="1.89087" stroke-linecap="round" stroke-linejoin="round"/>
<path d="M188.39 65.1384V73.2692" stroke="#625955" stroke-width="1.89087" stroke-linecap="round" stroke-linejoin="round"/>
<path d="M184.324 69.2036H192.455" stroke="#625955" stroke-width="1.89087" stroke-linecap="round" stroke-linejoin="round"/>
<path d="M131.719 17.7011L36.8108 30.1639C30.6593 30.9716 26.3274 36.6132 27.1352 42.7647L41.6013 152.93C42.4091 159.081 48.0506 163.413 54.2021 162.605L149.111 150.143C155.262 149.335 159.594 143.693 158.786 137.542L144.32 27.3767C143.512 21.2253 137.871 16.8934 131.719 17.7011Z" fill="#A19887"/>
<path d="M159.365 33.8634H63.498C57.2844 33.8634 52.2473 38.9005 52.2473 45.1141V156.392C52.2473 162.606 57.2844 167.643 63.498 167.643H159.365C165.579 167.643 170.616 162.606 170.616 156.392V45.1141C170.616 38.9005 165.579 33.8634 159.365 33.8634Z" fill="white" stroke="#625955" stroke-width="1.89087" stroke-linecap="round" stroke-linejoin="round"/>
<path d="M66.5609 121.903L85.7344 90.6464C85.923 90.1898 86.2429 89.7994 86.6536 89.5247C87.0642 89.25 87.5472 89.1034 88.0412 89.1034C88.5353 89.1034 89.0182 89.25 89.4289 89.5247C89.8396 89.7994 90.1595 90.1898 90.3481 90.6464L101.221 108.364C101.405 108.822 101.723 109.214 102.132 109.491C102.541 109.767 103.024 109.915 103.518 109.915C104.012 109.915 104.495 109.767 104.904 109.491C105.313 109.214 105.631 108.822 105.815 108.364L124.422 78.1099C124.606 77.6518 124.924 77.2594 125.333 76.983C125.742 76.7066 126.225 76.559 126.719 76.559C127.213 76.559 127.696 76.7066 128.105 76.983C128.514 77.2594 128.832 77.6518 129.016 78.1099L156.321 122.602L66.5609 121.903Z" fill="white" stroke="#625955" stroke-width="1.89087" stroke-linecap="round" stroke-linejoin="round"/>
<path d="M104.794 86.4484C108.126 86.4484 110.826 83.7478 110.826 80.4165C110.826 77.0852 108.126 74.3846 104.794 74.3846C101.463 74.3846 98.7626 77.0852 98.7626 80.4165C98.7626 83.7478 101.463 86.4484 104.794 86.4484Z" fill="white" stroke="#625955" stroke-width="1.89087" stroke-linecap="round" stroke-linejoin="round"/>
</svg>
