<svg width="180" height="179" viewBox="0 0 180 179" fill="none" xmlns="http://www.w3.org/2000/svg">
<ellipse opacity="0.1" cx="90" cy="173.6" rx="90" ry="5.4" fill="#2B2A7F"/>
<path fill-rule="evenodd" clip-rule="evenodd" d="M128.927 28.4517C130.478 26.3409 133.446 25.8869 135.557 27.4375C137.668 28.9881 138.122 31.9562 136.571 34.0669L130.795 41.9291C129.245 44.0398 126.276 44.4939 124.166 42.9433C122.055 41.3927 121.601 38.4246 123.152 36.3138L128.927 28.4517ZM133.425 30.3387C132.917 29.9653 132.202 30.0746 131.829 30.583L126.053 38.4452C125.679 38.9536 125.789 39.6685 126.297 40.042C126.806 40.4155 127.52 40.3061 127.894 39.7977L133.67 31.9356C134.043 31.4272 133.934 30.7122 133.425 30.3387ZM43.4084 75.036C43.4084 51.9807 62.0985 33.2906 85.1538 33.2906C108.209 33.2906 126.899 51.9807 126.899 75.036C126.899 98.0914 108.209 116.781 85.1538 116.781C62.0985 116.781 43.4084 98.0914 43.4084 75.036ZM85.1538 29.6906C60.1102 29.6906 39.8084 49.9924 39.8084 75.036C39.8084 100.08 60.1102 120.381 85.1538 120.381C93.3866 120.381 101.107 118.187 107.762 114.352L113.648 120.238C113.48 122.739 114.351 125.297 116.263 127.209L134.425 145.371C137.939 148.885 143.638 148.885 147.153 145.371L151.069 141.455C154.583 137.94 154.583 132.242 151.069 128.727L132.907 110.566C130.995 108.653 128.436 107.781 125.934 107.95L120.91 102.926C126.919 95.234 130.499 85.5532 130.499 75.036C130.499 49.9924 110.197 29.6906 85.1538 29.6906ZM122.032 109.139L118.576 105.683C116.274 108.192 113.693 110.441 110.882 112.381L114.836 116.335C115.221 115.673 115.696 115.049 116.263 114.482L120.179 110.566C120.746 109.999 121.37 109.523 122.032 109.139ZM105.966 69.5861C106.855 69.1415 107.215 68.0603 106.771 67.1712C106.326 66.282 105.245 65.9216 104.356 66.3662L90.2331 73.4276C89.6233 73.7325 89.2381 74.3558 89.2381 75.0376C89.2381 75.7194 89.6233 76.3426 90.2331 76.6475L104.356 83.709C105.245 84.1535 106.326 83.7931 106.771 82.904C107.215 82.0148 106.855 80.9336 105.966 80.489L95.063 75.0376L105.966 69.5861ZM63.535 67.1712C63.0904 68.0603 63.4508 69.1415 64.34 69.5861L75.2429 75.0376L64.34 80.489C63.4508 80.9336 63.0904 82.0148 63.535 82.904C63.9795 83.7931 65.0608 84.1535 65.9499 83.709L80.0728 76.6475C80.6826 76.3426 81.0678 75.7194 81.0678 75.0376C81.0678 74.3558 80.6826 73.7325 80.0728 73.4276L65.9499 66.3662C65.0608 65.9216 63.9795 66.282 63.535 67.1712ZM55.177 75.0355C55.177 58.48 68.5978 45.0592 85.1533 45.0592C101.709 45.0592 115.13 58.48 115.13 75.0355C115.13 91.591 101.709 105.012 85.1533 105.012C68.5978 105.012 55.177 91.591 55.177 75.0355ZM85.1533 41.4592C66.6096 41.4592 51.577 56.4918 51.577 75.0355C51.577 93.5793 66.6096 108.612 85.1533 108.612C103.697 108.612 118.73 93.5793 118.73 75.0355C118.73 56.4918 103.697 41.4592 85.1533 41.4592ZM148.918 45.8856C148.122 43.3905 145.453 42.0132 142.958 42.8094L133.664 45.7751C131.169 46.5713 129.792 49.2394 130.588 51.7345C131.384 54.2297 134.053 55.6069 136.548 54.8107L145.842 51.845C148.337 51.0488 149.714 48.3807 148.918 45.8856ZM144.053 46.239C144.654 46.0472 145.296 46.379 145.488 46.98C145.68 47.581 145.348 48.2236 144.747 48.4154L135.453 51.3811C134.852 51.5729 134.21 51.2411 134.018 50.6401C133.826 50.0391 134.158 49.3965 134.759 49.2047L144.053 46.239ZM27.5302 101.825C25.0157 102.557 23.5713 105.19 24.3041 107.704C25.0368 110.219 27.6692 111.663 30.1837 110.93L39.5498 108.201C42.0643 107.468 43.5087 104.836 42.776 102.322C42.0432 99.807 39.4109 98.3626 36.8964 99.0953L27.5302 101.825ZM27.7603 106.697C27.5838 106.091 27.9317 105.457 28.5374 105.281L37.9035 102.552C38.5092 102.375 39.1432 102.723 39.3197 103.329C39.4962 103.934 39.1483 104.568 38.5426 104.745L29.1765 107.474C28.5709 107.651 27.9368 107.303 27.7603 106.697ZM37.0522 126.583C34.9814 124.979 34.6027 122 36.2063 119.93L42.1794 112.216C43.783 110.146 46.7616 109.767 48.8324 111.37C50.9032 112.974 51.2819 115.953 49.6783 118.023L43.7052 125.737C42.1016 127.807 39.123 128.186 37.0522 126.583ZM39.0526 122.134C38.6664 122.633 38.7576 123.35 39.2564 123.736C39.7551 124.123 40.4726 124.031 40.8589 123.533L46.832 115.819C47.2182 115.32 47.127 114.603 46.6282 114.217C46.1294 113.83 45.412 113.922 45.0257 114.42L39.0526 122.134Z" fill="#2F2622"/>
</svg>
